<?xml version="1.0" encoding="utf-8"?>
<!-- Generator: Adobe Illustrator 19.2.1, SVG Export Plug-In . SVG Version: 6.00 Build 0)  -->
<!DOCTYPE svg PUBLIC "-//W3C//DTD SVG 1.1//EN" "http://www.w3.org/Graphics/SVG/1.1/DTD/svg11.dtd">
<svg version="1.1" xmlns="http://www.w3.org/2000/svg" xmlns:xlink="http://www.w3.org/1999/xlink" x="0px" y="0px"
	 viewBox="0 0 512 512" style="enable-background:new 0 0 512 512;" xml:space="preserve">
<style type="text/css">
	.st0{fill:#FFFFFF;}
</style>
<g id="Layer_1">
</g>
<g id="logo_510x510">
	<g>
		<path class="st0" d="M196.7,232.6c-6.5-6.3-14.5-9.4-23.9-9.4c-9.9,0-18.1,3.1-24.5,9.3c-6.3,6.1-9.5,13.9-9.6,23.4
			c0.1,9.5,3.3,17.2,9.6,23.4c6.4,6.2,14.6,9.3,24.5,9.3c9.4,0,17.4-3.1,23.9-9.4c6.5-6.3,9.7-14,9.7-23.3v0c0,0,0,0,0,0
			C206.4,246.7,203.2,238.9,196.7,232.6z"/>
		<path class="st0" d="M256,1C115.2,1,1,115.2,1,256s114.2,255,255,255s255-114.2,255-255S396.8,1,256,1z M117.7,300.6L72,256.5
			v44.1H59.1v-89.2H72v40.8l37.7-40.8h16l-38.9,42.4l48.4,46.9H117.7z M205.9,287.7c-8.9,8.5-20.1,12.8-33.5,12.8
			c-13.4,0-24.5-4.3-33.3-12.8c-8.7-8.4-13.1-19-13.2-31.8c0.1-12.8,4.5-23.4,13.2-31.8c8.8-8.5,19.9-12.8,33.3-12.8
			c13.4,0,24.6,4.3,33.5,12.8c8.9,8.5,13.3,19.1,13.4,31.8C219.2,268.6,214.7,279.2,205.9,287.7z M307.5,232.6
			c-13.9-8.7-22.3-9.4-31.7-9.4c-9.9,0-18.1,3.1-24.5,9.3c-6.3,6.1-9.5,13.9-9.6,23.4c0.1,9.5,3.3,17.2,9.6,23.4
			c6.4,6.2,14.6,9.3,24.5,9.3c9.4,0,17.9-0.6,31.7-9.4V293c-11.9,5.9-19.5,7.5-32.2,7.5c-13.4,0-24.5-4.3-33.3-12.8
			c-8.7-8.4-13.1-19-13.2-31.8c0.1-12.8,4.5-23.4,13.2-31.8c8.8-8.5,19.9-12.8,33.3-12.8c12.8,0,20.4,1.6,32.2,7.5V232.6z
			 M393,300.6h-12.8v-38.8h-50.6v38.8h-12.8v-89.2h12.8V250h50.6v-38.6H393V300.6z M445.7,294.1c-4.8,4.4-11,6.5-18.7,6.5
			c-8.8,0-17.3-3.1-24.5-8.4v-15.8c6.9,8.5,15.3,13.2,24.4,13.2c4,0,7.5-0.9,10-3.3c2.7-2.4,3.8-4.9,4-8.2
			c0.3-5.3-3.9-10.3-11.8-15.1l-9.7-5.8c-6.1-3.6-10.4-7.2-13-10.7c-2.6-3.5-3.9-7.6-3.9-12.1c0-6.9,2.4-12.4,7.3-16.7
			c4.9-4.3,11.2-6.4,19-6.4c7.5,0,14.3,2,20.5,6.1v14.2c-6.4-6-13.4-9.1-20.8-9.1c-4.2,0-7.7,0.8-10.3,2.8c-2.8,2.2-3.8,4.1-4,7.2
			c-0.2,2.6,1,5.1,3,7.3c2,2.3,5.2,4.7,9.5,7.2l9.8,5.6c10.9,6.3,16.3,14.4,16.3,24.2C452.9,284,450.5,289.7,445.7,294.1z"/>
	</g>
</g>
</svg>
